<svg xmlns="http://www.w3.org/2000/svg" viewBox="0 0 218 178">
  <defs>
    <linearGradient id="fw" x1="0" y1="0" x2="0" y2="1"><stop offset="0" stop-color="#a1887f"/><stop offset="1" stop-color="#795548"/></linearGradient>
    <linearGradient id="fr" x1="0" y1="0" x2="0" y2="1"><stop offset="0" stop-color="#455a64"/><stop offset="1" stop-color="#263238"/></linearGradient>
  </defs>
  <ellipse cx="109" cy="168" rx="96" ry="10" fill="#000" opacity="0.14"/>

  <!-- corps en bois/pierre -->
  <rect x="30" y="72" width="158" height="94" rx="6" fill="url(#fw)" stroke="#5d4037" stroke-width="2"/>
  <g stroke="#5d4037" stroke-width="4" opacity="0.5"><line x1="30" y1="118" x2="188" y2="118"/><line x1="80" y1="72" x2="80" y2="118"/><line x1="138" y1="72" x2="138" y2="118"/></g>

  <!-- toit + cheminée fumante -->
  <path d="M16 76 L109 24 L202 76 Z" fill="url(#fr)" stroke="#1c262b" stroke-width="2"/>
  <path d="M16 76 L202 76 L202 86 L16 86 Z" fill="#37474f"/>
  <rect x="150" y="30" width="20" height="26" fill="#5d4037" stroke="#3e2723" stroke-width="2"/>
  <g fill="#cfd8dc" opacity="0.75"><circle cx="160" cy="22" r="6"/><circle cx="167" cy="12" r="5"/><circle cx="156" cy="7" r="4"/></g>

  <!-- lueur de forge dans l'ouverture -->
  <rect x="52" y="118" width="44" height="48" rx="3" fill="#3e2723" stroke="#2b1a15" stroke-width="2"/>
  <path d="M60 166 L60 138 Q74 128 88 138 L88 166 Z" fill="#ff7043"/>
  <path d="M66 166 L66 146 Q74 140 82 146 L82 166 Z" fill="#ffd54f"/>

  <!-- enseigne : enclume + marteau -->
  <rect x="112" y="92" width="70" height="30" rx="6" fill="#2a1a17" stroke="#d7a86e" stroke-width="2"/>
  <g transform="translate(147,107)">
    <path d="M-16 2 L-8 2 L-8 -3 L14 -3 L14 2 L4 2 L4 9 L-16 9 Z" fill="#546e7a" stroke="#263238" stroke-width="1.2"/>
    <path d="M-16 -3 L-8 -3 L-8 2 L-16 2 Z" fill="#37474f"/>
    <rect x="0" y="-14" width="4" height="12" rx="1.5" fill="#8d6e63" transform="rotate(28 2 -8)"/>
    <rect x="6" y="-16" width="12" height="7" rx="1.5" fill="#37474f" transform="rotate(28 12 -12)"/>
    <circle cx="-4" cy="-6" r="1.6" fill="#ffd54f"/><circle cx="8" cy="-4" r="1.3" fill="#ffb300"/>
  </g>

  <!-- fenêtre -->
  <rect x="150" y="130" width="30" height="30" rx="3" fill="#ffcc80" stroke="#3e2723" stroke-width="2"/>
  <line x1="165" y1="130" x2="165" y2="160" stroke="#3e2723" stroke-width="1.5"/><line x1="150" y1="145" x2="180" y2="145" stroke="#3e2723" stroke-width="1.5"/>
</svg>
