<svg xmlns="http://www.w3.org/2000/svg" viewBox="0 0 110 150">
  <ellipse cx="55" cy="142" rx="30" ry="7" fill="#000" opacity="0.14"/>

  <!-- bulle de quête -->
  <g transform="translate(55,16)">
    <circle r="13" fill="#ffd54f" stroke="#c99a12" stroke-width="2"/>
    <rect x="-2.5" y="-8" width="5" height="10" rx="2.5" fill="#5d4037"/>
    <circle cx="0" cy="6" r="2.6" fill="#5d4037"/>
  </g>

  <!-- corps : robe de servante/kafra -->
  <path d="M32 138 L36 78 Q55 66 74 78 L78 138 Z" fill="#5c6bc0" stroke="#3949ab" stroke-width="2"/>
  <path d="M40 138 L42 92 L68 92 L70 138 Z" fill="#e8eaf6" opacity="0.9"/>
  <!-- tablier -->
  <rect x="46" y="96" width="18" height="30" rx="3" fill="#ffffff" opacity="0.7"/>

  <!-- bras -->
  <path d="M36 82 Q26 96 30 112" stroke="#5c6bc0" stroke-width="8" fill="none" stroke-linecap="round"/>
  <path d="M74 82 Q84 96 80 112" stroke="#5c6bc0" stroke-width="8" fill="none" stroke-linecap="round"/>
  <circle cx="30" cy="113" r="4.5" fill="#f3d3b5"/><circle cx="80" cy="113" r="4.5" fill="#f3d3b5"/>

  <!-- col -->
  <path d="M44 80 L55 88 L66 80 L60 76 L50 76 Z" fill="#ffffff"/>

  <!-- tête -->
  <circle cx="55" cy="60" r="18" fill="#f3d3b5" stroke="#e0b78f" stroke-width="1.5"/>
  <!-- cheveux -->
  <path d="M37 60 Q34 40 55 38 Q76 40 73 60 Q70 50 55 49 Q40 50 37 60 Z" fill="#8d6e63"/>
  <path d="M37 58 Q35 78 40 90 L46 88 Q42 74 43 60 Z" fill="#8d6e63"/>
  <path d="M73 58 Q75 78 70 90 L64 88 Q68 74 67 60 Z" fill="#8d6e63"/>
  <!-- coiffe blanche -->
  <path d="M42 44 Q55 36 68 44 L64 50 Q55 45 46 50 Z" fill="#ffffff" stroke="#e0e0e0" stroke-width="1"/>

  <!-- visage kawaii -->
  <circle cx="48" cy="61" r="2.6" fill="#3e2723"/><circle cx="62" cy="61" r="2.6" fill="#3e2723"/>
  <circle cx="47.2" cy="60.2" r="0.9" fill="#fff"/><circle cx="61.2" cy="60.2" r="0.9" fill="#fff"/>
  <circle cx="44" cy="66" r="2.4" fill="#ffab91" opacity="0.7"/><circle cx="66" cy="66" r="2.4" fill="#ffab91" opacity="0.7"/>
  <path d="M52 67 Q55 70 58 67" stroke="#c1694f" stroke-width="1.4" fill="none" stroke-linecap="round"/>
</svg>
