<svg xmlns="http://www.w3.org/2000/svg" viewBox="0 0 228 190">
  <defs>
    <linearGradient id="ww" x1="0" y1="0" x2="0" y2="1"><stop offset="0" stop-color="#cfd8dc"/><stop offset="1" stop-color="#90a4ae"/></linearGradient>
    <linearGradient id="wr" x1="0" y1="0" x2="0" y2="1"><stop offset="0" stop-color="#546e7a"/><stop offset="1" stop-color="#37474f"/></linearGradient>
  </defs>
  <ellipse cx="114" cy="180" rx="100" ry="10" fill="#000" opacity="0.12"/>

  <!-- corps en pierre -->
  <rect x="34" y="74" width="160" height="104" rx="6" fill="url(#ww)" stroke="#78909c" stroke-width="2"/>
  <g stroke="#78909c" stroke-width="1.5" opacity="0.6">
    <line x1="34" y1="106" x2="194" y2="106"/><line x1="34" y1="140" x2="194" y2="140"/>
    <line x1="94" y1="74" x2="94" y2="106"/><line x1="154" y1="106" x2="154" y2="140"/><line x1="74" y1="140" x2="74" y2="178"/>
  </g>

  <!-- toit d'ardoise + créneaux -->
  <path d="M20 78 L114 22 L208 78 Z" fill="url(#wr)" stroke="#263238" stroke-width="2"/>
  <g fill="#455a64"><rect x="86" y="30" width="10" height="12"/><rect x="132" y="30" width="10" height="12"/></g>
  <path d="M20 78 L208 78 L208 88 L20 88 Z" fill="#455a64"/>

  <!-- enseigne : épée croisée + bouclier -->
  <rect x="76" y="90" width="76" height="34" rx="6" fill="#3e2723" stroke="#8d6e63" stroke-width="2"/>
  <g transform="translate(114,107)">
    <path d="M-14 8 Q-14 -10 0 -13 Q14 -10 14 8 Q0 15 0 15 Q-14 8 -14 8 Z" fill="#ffca28" stroke="#c99a12" stroke-width="1.5"/>
    <path d="M0 -13 L0 15" stroke="#c99a12" stroke-width="1.5"/>
    <g transform="rotate(-35)"><rect x="-1.6" y="-14" width="3.2" height="20" fill="#eceff1"/><rect x="-5" y="4" width="10" height="3" fill="#8d6e63"/></g>
    <g transform="rotate(35)"><rect x="-1.6" y="-14" width="3.2" height="20" fill="#eceff1"/><rect x="-5" y="4" width="10" height="3" fill="#8d6e63"/></g>
  </g>

  <!-- râtelier d'armes à droite -->
  <g transform="translate(176,150)">
    <rect x="-2" y="-30" width="3" height="30" fill="#8d6e63" transform="rotate(-12)"/>
    <polygon points="-6,-32 0,-46 4,-30" fill="#cfd8dc" transform="rotate(-12)"/>
  </g>

  <!-- porte double -->
  <rect x="94" y="132" width="40" height="46" rx="4" fill="#5d4037" stroke="#3e2723" stroke-width="2"/>
  <line x1="114" y1="132" x2="114" y2="178" stroke="#3e2723" stroke-width="2"/>
  <circle cx="108" cy="156" r="2.5" fill="#ffd54f"/><circle cx="120" cy="156" r="2.5" fill="#ffd54f"/>

  <!-- fenêtres -->
  <rect x="48" y="130" width="30" height="30" rx="3" fill="#b3e5fc" stroke="#3e2723" stroke-width="2"/>
  <line x1="63" y1="130" x2="63" y2="160" stroke="#3e2723" stroke-width="1.5"/><line x1="48" y1="145" x2="78" y2="145" stroke="#3e2723" stroke-width="1.5"/>
  <rect x="150" y="130" width="30" height="30" rx="3" fill="#b3e5fc" stroke="#3e2723" stroke-width="2"/>
  <line x1="165" y1="130" x2="165" y2="160" stroke="#3e2723" stroke-width="1.5"/><line x1="150" y1="145" x2="180" y2="145" stroke="#3e2723" stroke-width="1.5"/>
</svg>
